<?xml version="1.0" encoding="utf-8"?>
<!-- Svg Vector Icons : http://www.onlinewebfonts.com/icon -->
<!DOCTYPE svg PUBLIC "-//W3C//DTD SVG 1.1//EN" "http://www.w3.org/Graphics/SVG/1.1/DTD/svg11.dtd">
<svg version="1.1" xmlns="http://www.w3.org/2000/svg" xmlns:xlink="http://www.w3.org/1999/xlink" x="0px" y="0px" viewBox="0 0 1000 1000" enable-background="new 0 0 1000 1000" xml:space="preserve">
<metadata> Svg Vector Icons : http://www.onlinewebfonts.com/icon </metadata>
<g><path d="M767.5,530.7C766.2,406.5,868.7,347,873.3,344.1c-57.5-84.3-147.2-95.8-179.3-97.2c-76.4-7.7-148.9,44.9-187.6,44.9c-38.6,0-98.4-43.8-161.7-42.7c-83.2,1.3-159.9,48.4-202.7,122.9c-86.4,150-22.2,372.2,62.1,493.8c41.2,59.5,90.3,126.4,154.7,124.1c62.1-2.5,85.5-40.2,160.5-40.2c75,0,96.1,40.2,161.8,38.9c66.8-1.3,109.1-60.7,150-120.4c47.3-69.1,66.7-136,67.9-139.3C897.6,728.3,768.8,679,767.5,530.7L767.5,530.7z M644.1,166.5c34.2-41.5,57.3-99,51-156.5c-49.3,2-109,32.8-144.4,74.2c-31.7,36.8-59.5,95.4-52,151.7C553.6,240.1,609.8,207.9,644.1,166.5L644.1,166.5z"/></g>
</svg>